<svg width="18" height="22" viewBox="0 0 18 22" fill="none" xmlns="http://www.w3.org/2000/svg">
<path d="M16.5556 21L8.77778 16.5556L1 21V3.22222C1 2.63285 1.23413 2.06762 1.65087 1.65087C2.06762 1.23413 2.63285 1 3.22222 1H14.3333C14.9227 1 15.4879 1.23413 15.9047 1.65087C16.3214 2.06762 16.5556 2.63285 16.5556 3.22222V21Z" fill="white"/>
<path d="M8.77778 5.44444V12.1111M12.1111 8.77778H5.44444M16.5556 21L8.77778 16.5556L1 21V3.22222C1 2.63285 1.23413 2.06762 1.65087 1.65087C2.06762 1.23413 2.63285 1 3.22222 1H14.3333C14.9227 1 15.4879 1.23413 15.9047 1.65087C16.3214 2.06762 16.5556 2.63285 16.5556 3.22222V21Z" stroke="#2E2C30" stroke-linecap="round" stroke-linejoin="round"/>
</svg>
