<svg width="21" height="24" viewBox="0 0 21 24" fill="none" xmlns="http://www.w3.org/2000/svg">
<path fill-rule="evenodd" clip-rule="evenodd" d="M10.4365 1.04364C8.49894 1.04364 6.64076 1.81332 5.27072 3.18336C3.90068 4.5534 3.131 6.41158 3.131 8.34911C3.131 11.8481 2.38264 14.0209 1.69297 15.2853C1.3467 15.9201 1.00952 16.3366 0.775294 16.5838C0.65791 16.7077 0.565669 16.7899 0.51013 16.8362C0.482347 16.8593 0.463714 16.8735 0.455679 16.8795L0.452697 16.8817C0.0785677 17.1387 -0.0869944 17.6088 0.0448616 18.0443C0.178133 18.4845 0.583823 18.7855 1.04372 18.7855H19.8292C20.2891 18.7855 20.6948 18.4845 20.8281 18.0443C20.9599 17.6088 20.7944 17.1387 20.4202 16.8817L20.4173 16.8795C20.4092 16.8735 20.3906 16.8593 20.3628 16.8362C20.3073 16.7899 20.215 16.7077 20.0977 16.5838C19.8634 16.3366 19.5262 15.9201 19.18 15.2853C18.4903 14.0209 17.7419 11.8481 17.7419 8.34911C17.7419 6.41158 16.9723 4.5534 15.6022 3.18336C14.2322 1.81332 12.374 1.04364 10.4365 1.04364ZM17.3476 16.2848C17.427 16.4304 17.5067 16.5681 17.5861 16.6982H3.28684C3.36625 16.5681 3.44597 16.4304 3.52539 16.2848C4.40118 14.6792 5.21828 12.1556 5.21828 8.34911C5.21828 6.96516 5.76805 5.63789 6.74665 4.65929C7.72525 3.68069 9.05252 3.13092 10.4365 3.13092C11.8204 3.13092 13.1477 3.68069 14.1263 4.65929C15.1049 5.63789 15.6547 6.96516 15.6547 8.34911C15.6547 12.1556 16.4718 14.6792 17.3476 16.2848Z" fill="#171618"/>
<path d="M9.53324 21.3928C9.24402 20.8942 8.60539 20.7245 8.10682 21.0137C7.60825 21.3029 7.43853 21.9415 7.72774 22.4401C8.00296 22.9145 8.398 23.3084 8.8733 23.5821C9.3486 23.8559 9.88748 24 10.436 24C10.9845 24 11.5234 23.8559 11.9987 23.5821C12.474 23.3084 12.869 22.9145 13.1442 22.4401C13.4334 21.9415 13.2637 21.3029 12.7651 21.0137C12.2666 20.7245 11.6279 20.8942 11.3387 21.3928C11.247 21.5509 11.1153 21.6822 10.9569 21.7734C10.7984 21.8647 10.6188 21.9127 10.436 21.9127C10.2531 21.9127 10.0735 21.8647 9.91509 21.7734C9.75666 21.6822 9.62498 21.5509 9.53324 21.3928Z" fill="#171618"/>
<path d="M20.8729 4.69638C20.8729 7.29011 18.7702 9.39275 16.1765 9.39275C13.5828 9.39275 11.4801 7.29011 11.4801 4.69638C11.4801 2.10264 13.5828 0 16.1765 0C18.7702 0 20.8729 2.10264 20.8729 4.69638Z" fill="#EB5959"/>
</svg>
