<svg width="24" height="24" viewBox="0 0 24 24" fill="none" xmlns="http://www.w3.org/2000/svg">
<path fill-rule="evenodd" clip-rule="evenodd" d="M10 1H14C18.9706 1 23 5.02944 23 10V14C23 18.9706 18.9706 23 14 23H10C5.02944 23 1 18.9706 1 14V10C1 5.02944 5.02944 1 10 1ZM0 10C0 4.47715 4.47715 0 10 0H14C19.5228 0 24 4.47715 24 10V14C24 19.5228 19.5228 24 14 24H10C4.47715 24 0 19.5228 0 14V10ZM12.2071 17.7071L17.7071 12.2071C18.0976 11.8166 18.0976 11.1834 17.7071 10.7929L12.2071 5.29289C11.8166 4.90237 11.1834 4.90237 10.7929 5.29289C10.4024 5.68342 10.4024 6.31658 10.7929 6.70711L14.5858 10.5H6C5.44772 10.5 5 10.9477 5 11.5C5 12.0523 5.44772 12.5 6 12.5H14.5858L10.7929 16.2929C10.4024 16.6834 10.4024 17.3166 10.7929 17.7071C11.1834 18.0976 11.8166 18.0976 12.2071 17.7071Z" fill="#2E2C30"/>
</svg>
