<svg width="15" height="15" viewBox="0 0 15 15" fill="none" xmlns="http://www.w3.org/2000/svg">
<path fill-rule="evenodd" clip-rule="evenodd" d="M0.6 0C0.268629 0 0 0.268629 0 0.6V5.95671C0 6.28808 0.268629 6.55671 0.6 6.55671H5.95671C6.28808 6.55671 6.55671 6.28808 6.55671 5.95671V0.6C6.55671 0.268629 6.28808 0 5.95671 0H0.6ZM1.2 5.35671V1.2H5.35671V5.35671H1.2ZM9.01772 0C8.68635 0 8.41772 0.268629 8.41772 0.6V5.95671C8.41772 6.28808 8.68635 6.55671 9.01772 6.55671H14.3744C14.7058 6.55671 14.9744 6.28808 14.9744 5.95671V0.6C14.9744 0.268629 14.7058 0 14.3744 0H9.01772ZM9.61772 5.35671V1.2H13.7744V5.35671H9.61772ZM8.41772 9.01769C8.41772 8.68631 8.68635 8.41769 9.01772 8.41769H14.3744C14.7058 8.41769 14.9744 8.68631 14.9744 9.01769V14.3744C14.9744 14.7058 14.7058 14.9744 14.3744 14.9744H9.01772C8.68635 14.9744 8.41772 14.7058 8.41772 14.3744V9.01769ZM9.61772 9.61769V13.7744H13.7744V9.61769H9.61772ZM0.6 8.41769C0.268629 8.41769 0 8.68631 0 9.01769V14.3744C0 14.7058 0.268629 14.9744 0.6 14.9744H5.95671C6.28808 14.9744 6.55671 14.7058 6.55671 14.3744V9.01769C6.55671 8.68631 6.28808 8.41769 5.95671 8.41769H0.6ZM1.2 13.7744V9.61769H5.35671V13.7744H1.2Z" fill="#AAA8AE"/>
</svg>
