<svg width="15" height="15" viewBox="0 0 15 15" fill="none" xmlns="http://www.w3.org/2000/svg">
<path fill-rule="evenodd" clip-rule="evenodd" d="M0.6 0C0.268629 0 0 0.268629 0 0.6V5.95938C0 6.29075 0.268629 6.55938 0.6 6.55938H5.95938C6.29075 6.55938 6.55938 6.29075 6.55938 5.95938V0.6C6.55938 0.268629 6.29075 0 5.95938 0H0.6ZM1.2 5.35938V1.2H5.35938V5.35938H1.2ZM0.6 8.42188C0.268629 8.42188 0 8.69051 0 9.02188V14.3813C0 14.7126 0.268629 14.9813 0.6 14.9813H5.95938C6.29075 14.9813 6.55938 14.7126 6.55938 14.3813V9.02188C6.55938 8.69051 6.29075 8.42188 5.95938 8.42188H0.6ZM1.2 13.7813V9.62188H5.35938V13.7813H1.2ZM8.42188 1.36563C8.42188 1.03425 8.6905 0.765625 9.02188 0.765625H14.3813C14.7126 0.765625 14.9813 1.03425 14.9813 1.36563C14.9813 1.697 14.7126 1.96563 14.3813 1.96563H9.02188C8.6905 1.96563 8.42188 1.697 8.42188 1.36563ZM9.02188 4.59376C8.6905 4.59376 8.42188 4.86239 8.42188 5.19376C8.42188 5.52513 8.6905 5.79376 9.02188 5.79376H14.3813C14.7126 5.79376 14.9813 5.52513 14.9813 5.19376C14.9813 4.86239 14.7126 4.59376 14.3813 4.59376H9.02188ZM8.42188 9.78751C8.42188 9.45614 8.6905 9.18751 9.02188 9.18751H14.3813C14.7126 9.18751 14.9813 9.45614 14.9813 9.78751C14.9813 10.1189 14.7126 10.3875 14.3813 10.3875H9.02188C8.6905 10.3875 8.42188 10.1189 8.42188 9.78751ZM9.02188 13.0156C8.6905 13.0156 8.42188 13.2843 8.42188 13.6156C8.42188 13.947 8.6905 14.2156 9.02188 14.2156H14.3813C14.7126 14.2156 14.9813 13.947 14.9813 13.6156C14.9813 13.2843 14.7126 13.0156 14.3813 13.0156H9.02188Z" fill="white"/>
</svg>
