<svg width="20" height="20" viewBox="0 0 20 20" fill="none" xmlns="http://www.w3.org/2000/svg">
<path d="M0 12.3077C0 11.458 0.688792 10.7692 1.53846 10.7692H7.69229C8.54196 10.7692 9.23075 11.458 9.23075 12.3077V18.4615C9.23075 19.3112 8.54196 20 7.69229 20H1.53846C0.688792 20 0 19.3112 0 18.4615V12.3077Z" fill="#D9D9D9"/>
<path d="M10.7688 12.3077C10.7688 11.458 11.4576 10.7692 12.3073 10.7692H18.4611C19.3108 10.7692 19.9996 11.458 19.9996 12.3077V18.4615C19.9996 19.3112 19.3108 20 18.4611 20H12.3073C11.4576 20 10.7688 19.3112 10.7688 18.4615V12.3077Z" fill="#FD9F00"/>
<path d="M10.7688 1.53846C10.7688 0.688792 11.4576 0 12.3073 0H18.4611C19.3108 0 19.9996 0.688792 19.9996 1.53846V7.69229C19.9996 8.54196 19.3108 9.23075 18.4611 9.23075H12.3073C11.4576 9.23075 10.7688 8.54196 10.7688 7.69229V1.53846Z" fill="#D9D9D9"/>
<path d="M0 1.53846C0 0.688792 0.688792 0 1.53846 0H7.69229C8.54196 0 9.23075 0.688792 9.23075 1.53846V7.69229C9.23075 8.54196 8.54196 9.23075 7.69229 9.23075H1.53846C0.688792 9.23075 0 8.54196 0 7.69229V1.53846Z" fill="#D9D9D9"/>
</svg>
