<svg width="11" height="10" viewBox="0 0 11 10" fill="none" xmlns="http://www.w3.org/2000/svg">
<path fill-rule="evenodd" clip-rule="evenodd" d="M2.5 2.5C2.5 1.67157 3.17157 1 4 1C4.82843 1 5.5 1.67157 5.5 2.5C5.5 3.32843 4.82843 4 4 4C3.17157 4 2.5 3.32843 2.5 2.5ZM4 0C2.61929 0 1.5 1.11929 1.5 2.5C1.5 3.88071 2.61929 5 4 5C5.38071 5 6.5 3.88071 6.5 2.5C6.5 1.11929 5.38071 0 4 0ZM2.5 6C1.83696 6 1.20107 6.26339 0.732233 6.73223C0.263392 7.20107 0 7.83696 0 8.5V9.5C0 9.77614 0.223858 10 0.5 10C0.776142 10 1 9.77614 1 9.5V8.5C1 8.10218 1.15804 7.72064 1.43934 7.43934C1.72064 7.15804 2.10218 7 2.5 7H5.5C5.89782 7 6.27936 7.15804 6.56066 7.43934C6.84196 7.72064 7 8.10217 7 8.5V9.5C7 9.77614 7.22386 10 7.5 10C7.77614 10 8 9.77614 8 9.5V8.5C8 7.83696 7.73661 7.20107 7.26777 6.73223C6.79893 6.26339 6.16304 6 5.5 6H2.5ZM8.51606 6.44006C8.5851 6.17269 8.85781 6.01191 9.12518 6.08094C9.66151 6.21942 10.1367 6.5321 10.476 6.96989C10.8154 7.40767 10.9998 7.94577 11.0002 8.49969V8.50006V9.50006C11.0002 9.77621 10.7763 10.0001 10.5002 10.0001C10.224 10.0001 10.0002 9.77621 10.0002 9.50006V8.50044V8.50029C9.9999 8.16799 9.88929 7.84519 9.6857 7.58255C9.48207 7.31988 9.19698 7.13227 8.87518 7.04919C8.60781 6.98015 8.44702 6.70744 8.51606 6.44006ZM7.6242 0.0806885C7.35669 0.0121943 7.0843 0.173531 7.01581 0.441044C6.94731 0.708557 7.10865 0.980944 7.37616 1.04944C7.69882 1.13205 7.9848 1.3197 8.18903 1.5828C8.39325 1.84591 8.5041 2.1695 8.5041 2.50256C8.5041 2.83563 8.39325 3.15922 8.18903 3.42232C7.9848 3.68543 7.69882 3.87308 7.37616 3.95569C7.10865 4.02418 6.94731 4.29657 7.01581 4.56408C7.0843 4.8316 7.35669 4.99293 7.6242 4.92444C8.16196 4.78675 8.6386 4.474 8.97898 4.03549C9.31935 3.59699 9.5041 3.05767 9.5041 2.50256C9.5041 1.94746 9.31935 1.40814 8.97898 0.969632C8.6386 0.531127 8.16196 0.218377 7.6242 0.0806885Z" fill="#171618"/>
</svg>
