<svg width="20" height="22" viewBox="0 0 20 22" fill="none" xmlns="http://www.w3.org/2000/svg">
<path fill-rule="evenodd" clip-rule="evenodd" d="M9.38606 0.210648C9.74717 -0.0702159 10.2528 -0.0702159 10.6139 0.210648L19.6139 7.21065C19.8575 7.4001 20 7.69141 20 8V19C20 19.7957 19.6839 20.5587 19.1213 21.1213C18.5587 21.6839 17.7957 22 17 22H3C2.20435 22 1.44129 21.6839 0.87868 21.1213C0.31607 20.5587 0 19.7957 0 19V8C0 7.69141 0.142473 7.4001 0.386059 7.21065L9.38606 0.210648ZM2 8.48908V19C2 19.2652 2.10536 19.5196 2.29289 19.7071C2.48043 19.8946 2.73478 20 3 20H17C17.2652 20 17.5196 19.8946 17.7071 19.7071C17.8946 19.5196 18 19.2652 18 19V8.48908L10 2.26686L2 8.48908ZM13.1772 10.8571L10.4071 13.8403L8.24954 11.5168C8.08735 11.3421 7.85977 11.2429 7.62143 11.2429C7.38308 11.2429 7.1555 11.3421 6.99332 11.5168L3.37189 15.4168C3.04977 15.7637 3.06986 16.306 3.41676 16.6281C3.76365 16.9502 4.30599 16.9301 4.62811 16.5832L7.62143 13.3597L9.77903 15.6832C9.94122 15.8579 10.1688 15.9571 10.4071 15.9571C10.6455 15.9571 10.8731 15.8579 11.0353 15.6832L14.286 12.1824V14.2857C14.286 14.7591 14.6697 15.1429 15.1431 15.1429C15.6165 15.1429 16.0003 14.7591 16.0003 14.2857V10C16.0003 9.53263 15.6262 9.15263 15.1611 9.14304M13.1772 10.8571H10.8574C10.384 10.8571 10.0003 10.4734 10.0003 10C10.0003 9.52661 10.384 9.14286 10.8574 9.14286H15.1404" fill="#171618"/>
</svg>
