<svg width="22" height="15" viewBox="0 0 22 15" fill="none" xmlns="http://www.w3.org/2000/svg">
<path fill-rule="evenodd" clip-rule="evenodd" d="M2 6C2 5.20234 2.67275 4.21078 4.37611 3.35904C6.01963 2.53723 8.36011 2 11 2C13.3086 2 15.3941 2.41107 16.9847 3.06843C18.6136 3.74166 19.5581 4.59987 19.8735 5.37636C20.0814 5.88803 20.6647 6.13433 21.1764 5.92648C21.688 5.71862 21.9343 5.13532 21.7265 4.62364C21.1149 3.11813 19.5784 1.97634 17.7486 1.22007C15.8804 0.447934 13.5294 0 11 0C8.11689 0 5.45737 0.582273 3.48164 1.57021C1.56575 2.52822 0 4.03666 0 6C0 7.96334 1.56575 9.47178 3.48164 10.4298C5.45737 11.4177 8.11689 12 11 12C12.7976 12 14.5075 11.7738 16.019 11.3641L15.2492 12.9427C15.0071 13.4391 15.2133 14.0378 15.7097 14.2798C16.2061 14.5219 16.8047 14.3158 17.0468 13.8194L18.9068 10.0054C19.1489 9.50896 18.9427 8.9103 18.4463 8.66822L14.6323 6.80822C14.1359 6.56613 13.5373 6.7723 13.2952 7.2687C13.0531 7.7651 13.2593 8.36376 13.7557 8.60584L15.4684 9.44112C14.1569 9.79382 12.6361 10 11 10C8.36011 10 6.01963 9.46277 4.37611 8.64096C2.67275 7.78922 2 6.79766 2 6Z" fill="white"/>
</svg>
