<svg width="21" height="21" viewBox="0 0 21 21" fill="none" xmlns="http://www.w3.org/2000/svg">
<path fill-rule="evenodd" clip-rule="evenodd" d="M15.7778 8.88889C15.7778 12.6935 12.6935 15.7778 8.88889 15.7778C5.08426 15.7778 2 12.6935 2 8.88889C2 5.08426 5.08426 2 8.88889 2C12.6935 2 15.7778 5.08426 15.7778 8.88889ZM15.8411 14.4283C17.0532 12.909 17.7778 10.9836 17.7778 8.88889C17.7778 3.97969 13.7981 0 8.88889 0C3.97969 0 0 3.97969 0 8.88889C0 13.7981 3.97969 17.7778 8.88889 17.7778C10.9836 17.7778 12.909 17.0532 14.4283 15.8411C14.4384 15.8522 14.4488 15.8631 14.4596 15.8738L19.2929 20.7071C19.6834 21.0976 20.3166 21.0976 20.7071 20.7071C21.0976 20.3166 21.0976 19.6834 20.7071 19.2929L15.8738 14.4596C15.8631 14.4488 15.8522 14.4384 15.8411 14.4283Z" fill="black"/>
</svg>
