<svg width="23" height="20" viewBox="0 0 23 20" fill="none" xmlns="http://www.w3.org/2000/svg">
<path fill-rule="evenodd" clip-rule="evenodd" d="M3.66659 0.292893C4.05712 -0.0976311 4.69028 -0.0976311 5.08081 0.292893L8.45451 3.66659C8.84503 4.05712 8.84503 4.69028 8.45451 5.08081C8.06399 5.47133 7.43082 5.47133 7.0403 5.08081L5.37369 3.41421V18.9931C5.37369 19.5454 4.92598 19.9931 4.37369 19.9931C3.82141 19.9931 3.37369 19.5454 3.37369 18.9931V3.41422L1.70711 5.08081C1.31658 5.47133 0.683418 5.47133 0.292893 5.08081C-0.0976311 4.69028 -0.0976311 4.05712 0.292893 3.66659L3.66659 0.292893ZM8.99789 8.87193C8.99789 8.31965 9.4456 7.87193 9.99789 7.87193H14.4962C15.0484 7.87193 15.4962 8.31965 15.4962 8.87193C15.4962 9.42422 15.0484 9.87193 14.4962 9.87193H9.99789C9.4456 9.87193 8.99789 9.42422 8.99789 8.87193ZM8.99789 13.3702C8.99789 12.818 9.4456 12.3702 9.99789 12.3702H17.8699C18.4221 12.3702 18.8699 12.818 18.8699 13.3702C18.8699 13.9225 18.4221 14.3702 17.8699 14.3702H9.99789C9.4456 14.3702 8.99789 13.9225 8.99789 13.3702ZM9.99789 16.8685C9.4456 16.8685 8.99789 17.3163 8.99789 17.8685C8.99789 18.4208 9.4456 18.8685 9.99789 18.8685H21.2436C21.7958 18.8685 22.2436 18.4208 22.2436 17.8685C22.2436 17.3163 21.7958 16.8685 21.2436 16.8685H9.99789Z" fill="black"/>
</svg>
