<svg width="15" height="15" viewBox="0 0 15 15" fill="none" xmlns="http://www.w3.org/2000/svg">
<path fill-rule="evenodd" clip-rule="evenodd" d="M1.16667 7.40152C1.16667 3.9581 3.9581 1.16667 7.40152 1.16667C10.8449 1.16667 13.6364 3.9581 13.6364 7.40152C13.6364 10.8449 10.8449 13.6364 7.40152 13.6364C3.9581 13.6364 1.16667 10.8449 1.16667 7.40152ZM7.40152 0C3.31377 0 0 3.31377 0 7.40152C0 11.4893 3.31377 14.803 7.40152 14.803C11.4893 14.803 14.803 11.4893 14.803 7.40152C14.803 3.31377 11.4893 0 7.40152 0ZM7.98485 3.31051C7.98485 2.98835 7.72368 2.72718 7.40152 2.72718C7.07935 2.72718 6.81818 2.98835 6.81818 3.31051V7.0409L4.41337 8.24331C4.12522 8.38739 4.00842 8.73778 4.15249 9.02593C4.29657 9.31409 4.64696 9.43089 4.93512 9.28681L7.66239 7.92317C7.86002 7.82436 7.98485 7.62237 7.98485 7.40142V3.31051Z" fill="#171618"/>
</svg>
