<svg width="20" height="20" viewBox="0 0 20 20" fill="none" xmlns="http://www.w3.org/2000/svg">
<path fill-rule="evenodd" clip-rule="evenodd" d="M9.84091 1.5C5.23435 1.5 1.5 5.23435 1.5 9.84091C1.5 14.4475 5.23435 18.1818 9.84091 18.1818C14.4475 18.1818 18.1818 14.4475 18.1818 9.84091C18.1818 5.23435 14.4475 1.5 9.84091 1.5ZM0 9.84091C0 4.40592 4.40592 0 9.84091 0C15.2759 0 19.6818 4.40592 19.6818 9.84091C19.6818 15.2759 15.2759 19.6818 9.84091 19.6818C4.40592 19.6818 0 15.2759 0 9.84091ZM9.84091 9.09091C10.2551 9.09091 10.5909 9.4267 10.5909 9.84091V13.4773C10.5909 13.8915 10.2551 14.2273 9.84091 14.2273C9.4267 14.2273 9.09091 13.8915 9.09091 13.4773V9.84091C9.09091 9.4267 9.4267 9.09091 9.84091 9.09091ZM9.84091 5.45455C9.4267 5.45455 9.09091 5.79033 9.09091 6.20455C9.09091 6.61876 9.4267 6.95455 9.84091 6.95455H9.85091C10.2651 6.95455 10.6009 6.61876 10.6009 6.20455C10.6009 5.79033 10.2651 5.45455 9.85091 5.45455H9.84091Z" fill="#171618"/>
</svg>
