<svg width="24" height="24" viewBox="0 0 24 24" fill="none" xmlns="http://www.w3.org/2000/svg">
<path d="M12 11C14.2091 11 16 9.20914 16 7C16 4.79086 14.2091 3 12 3C9.79086 3 8 4.79086 8 7C8 9.20914 9.79086 11 12 11Z" stroke="#171618" stroke-width="2" stroke-linecap="round" stroke-linejoin="round"/>
<path fill-rule="evenodd" clip-rule="evenodd" d="M9 12.25C7.59273 12.25 6.3023 12.9503 5.3907 14.0898C4.48374 15.2235 4 16.722 4 18.25V20.75C4 21.3023 4.44772 21.75 5 21.75V22H19V21.75C19.5523 21.75 20 21.3023 20 20.75V18.25C20 16.722 19.5163 15.2235 18.6093 14.0898C17.6977 12.9503 16.4073 12.25 15 12.25H9ZM18 20V18.25C18 17.1258 17.6409 16.0808 17.0476 15.3392C16.4589 14.6033 15.7145 14.25 15 14.25H9C8.28554 14.25 7.54114 14.6033 6.95244 15.3392C6.35911 16.0808 6 17.1258 6 18.25V20H18Z" fill="#171618"/>
</svg>
