<svg width="146" height="29" viewBox="0 0 146 29" fill="none" xmlns="http://www.w3.org/2000/svg">
<path d="M1 27.5L13.8807 13.1881C14.2302 12.7998 14.8197 12.7459 15.2337 13.0644L20.3459 16.9968C20.7256 17.289 21.2593 17.2707 21.6181 16.9532L33.4634 6.47472C33.7842 6.1909 34.2502 6.14295 34.6221 6.35547L40.8344 9.90538C40.9438 9.9679 41.0404 10.0505 41.1191 10.1489L46.1657 16.4572C46.5826 16.9783 47.3832 16.9526 47.7658 16.4059L49.3935 14.0808C49.8584 13.4166 50.879 13.5527 51.1536 14.3155L54.0638 22.3996C54.3807 23.2798 55.6248 23.2818 55.9445 22.4026L60.8005 9.04867C60.9238 8.70966 61.2201 8.46332 61.5759 8.40402L75.7408 6.0432C75.9107 6.01488 76.0851 6.03093 76.2469 6.0898L86.5869 9.84978C86.8501 9.94551 87.1415 9.92643 87.39 9.7972L99.5 3.5L104.139 1.18032C104.371 1.06463 104.638 1.04311 104.885 1.12027L112.252 3.42252C112.415 3.47333 112.588 3.48176 112.754 3.44702L124.218 1.05866C124.402 1.02033 124.593 1.03462 124.77 1.09989L137.67 5.87783C137.884 5.9569 138.118 5.96076 138.334 5.88877L145.5 3.5" stroke="#0F5285" stroke-width="2"/>
</svg>
